# xmcd CD database file generated by OrangeCD 5.2
#
# Track frame offsets:
#	182
#	21480
#	39140
#	65832
#	87142
#	103970
#	114572
#	134355
#	152397
#	171117
#
# Disc length: 2613 seconds
#
# Revision: 1
# Processed by: cddbd v1.5.1PL2 Copyright (c) Steve Scherf et al.
# Submitted via: OrangeCD 5.2
#
DISCID=7f0a330a
DTITLE=Mike Bloomfield - Knockin' Myself Out
DYEAR=1900
DGENRE=Blues
TTITLE0=Women Lovin' Each Other
TTITLE1=Wings Of An Angel
TTITLE2=Knockin' Myself Out
TTITLE3=Junko Partner
TTITLE4=Cherry Red
TTITLE5=RX For The Blues
TTITLE6=Walkin' The Floor
TTITLE7=Hully Gully
TTITLE8=Don't You Lie To Me
TTITLE9=You must have Jesus
EXTD=
EXTT0=
EXTT1=
EXTT2=
EXTT3=
EXTT4=
EXTT5=
EXTT6=
EXTT7=
EXTT8=
EXTT9=
PLAYORDER=
